<?xml version="1.0" encoding="UTF-8" standalone="no"?>
<svg
   inkscape:version="1.1.1 (3bf5ae0d25, 2021-09-20)"
   sodipodi:docname="logo_v4.svg"
   viewBox="0 0 270 270"
   height="270"
   width="270"
   id="svg823"
   version="1.1"
   xmlns:inkscape="http://www.inkscape.org/namespaces/inkscape"
   xmlns:sodipodi="http://sodipodi.sourceforge.net/DTD/sodipodi-0.dtd"
   xmlns="http://www.w3.org/2000/svg"
   xmlns:svg="http://www.w3.org/2000/svg"
   xmlns:rdf="http://www.w3.org/1999/02/22-rdf-syntax-ns#"
   xmlns:cc="http://creativecommons.org/ns#"
   xmlns:dc="http://purl.org/dc/elements/1.1/">
  <metadata
     id="metadata842">
    <rdf:RDF>
      <cc:Work
         rdf:about="">
        <dc:format>image/svg+xml</dc:format>
        <dc:type
           rdf:resource="http://purl.org/dc/dcmitype/StillImage" />
      </cc:Work>
    </rdf:RDF>
  </metadata>
  <defs
     id="defs827" />
  <sodipodi:namedview
     showguides="false"
     inkscape:pagecheckerboard="true"
     inkscape:document-rotation="0"
     inkscape:current-layer="g829"
     inkscape:window-maximized="1"
     inkscape:window-y="-9"
     inkscape:window-x="-9"
     inkscape:cy="138.80095"
     inkscape:cx="156.00576"
     inkscape:zoom="2.1505616"
     showgrid="false"
     id="namedview825"
     inkscape:window-height="1001"
     inkscape:window-width="1920"
     inkscape:pageshadow="2"
     inkscape:pageopacity="0"
     guidetolerance="10"
     gridtolerance="10"
     objecttolerance="10"
     borderopacity="1"
     bordercolor="#666666"
     pagecolor="#ffffff"
     width="270px" />
  <g
     id="g829"
     inkscape:label="Image"
     inkscape:groupmode="layer">
    <ellipse
       ry="121.6785"
       rx="121.67848"
       style="opacity:1;fill:none;fill-rule:evenodd;stroke:#ffffff;stroke-width:18.4842;stroke-miterlimit:4;stroke-dasharray:none;stroke-opacity:1"
       id="circle2160"
       cx="-135.44199"
       cy="-135.46893"
       transform="scale(-1)" />
    <circle
       transform="scale(-1)"
       r="115.5423"
       cy="-135.74896"
       cx="-135.722"
       id="path844"
       style="fill:#ffffff;fill-rule:evenodd;stroke:#c32126;stroke-width:17.552;stroke-miterlimit:4;stroke-dasharray:none;stroke-opacity:1" />
    <path
       id="path4573"
       d="M 111.03234,240.73228 C 90.060465,235.19845 73.528933,225.78133 59.327991,211.27908 52.512326,204.3188 49.198367,200.19875 44.800502,193.21791 37.50902,181.64396 32.504403,169.05831 29.713618,155.27732 c -1.264321,-6.2433 -1.46948,-9.13097 -1.444533,-20.33247 0.0247,-11.09661 0.245477,-14.05917 1.471146,-19.74279 7.173455,-33.26427 28.43921,-60.917344 58.417977,-75.964211 6.241887,-3.132905 15.718882,-6.571777 23.684212,-8.594153 6.6102,-1.678311 7.39124,-1.734414 24.02762,-1.725978 16.70133,0.0087 17.38091,0.05859 23.65475,1.744127 21.13427,5.677932 34.87749,13.167833 48.90399,26.652111 12.19967,11.728066 17.28995,18.328402 22.97984,29.796994 8.2394,16.60737 11.75677,30.83657 11.76819,47.6072 0.0128,18.79546 -3.35464,33.21959 -11.50141,49.26523 -14.4525,28.46525 -39.83187,48.6008 -71.60452,56.80977 -4.44239,1.14776 -7.4603,1.34654 -23.56398,1.552 l -18.46905,0.23565 z M 154.27329,226.656 c 0.47957,-0.47916 0.77043,-8.30664 0.91606,-24.65264 l 0.21338,-23.95057 13.16076,13.02301 c 19.87736,19.66931 21.49982,21.11282 22.89245,20.36752 2.29546,-1.22851 13.26624,-11.54412 17.81422,-16.75039 l 4.61878,-5.28732 -25.63234,-25.63823 -25.63237,-25.63821 25.63308,-25.63896 25.63309,-25.63893 -2.16038,-3.17916 C 208.9699,79.61037 200.8335,71.235913 195.11667,66.572641 l -4.4398,-3.621563 -17.68362,17.675162 -17.68362,17.67516 -0.16683,-24.799852 -0.16684,-24.799855 -2.22902,-0.561409 c -2.89608,-0.729419 -24.48945,-0.729351 -27.38515,8.7e-5 l -2.22903,0.561496 -0.14876,41.688543 c -0.0818,22.9287 0.0615,63.03941 0.31843,89.13493 l 0.46719,47.44637 2.54746,0.43466 c 4.01267,0.68467 27.14127,0.0638 27.95621,-0.75037 z m -51.99784,-28.30758 11.62278,-11.48624 v -23.56691 -23.56692 l -21.680185,21.64987 c -11.924107,11.90742 -22.834711,23.1355 -24.245792,24.95128 -2.29774,2.95673 -2.483676,3.45447 -1.780997,4.76745 1.257793,2.35021 13.923129,15.1045 18.025147,18.15175 4.494314,3.33866 2.327365,4.64661 18.059047,-10.90028 z M 101.01104,76.521744 c -7.091775,-7.098128 -13.142722,-12.90568 -13.446539,-12.90568 -1.84232,0 -16.388132,13.765136 -21.078977,19.947666 l -1.846668,2.43391 24.15204,24.16005 24.152034,24.16006 0.48114,-22.44516 0.48115,-22.44517 z"
       style="opacity:0;fill:#ffe6d5;fill-opacity:1;stroke:#c42424;stroke-width:0" />
    <g
       transform="translate(0.157628,1.9217593)"
       id="g850">
      <path
         style="fill:#0b4874;fill-opacity:1;stroke-width:0.968464"
         d="m 124.37907,223.52101 -4.35809,-0.64786 -0.24717,-88.81178 -0.24718,-88.811778 3.6368,-0.738696 c 4.69176,-0.95296 20.01141,-0.95355 24.7009,-9.49e-4 l 3.63174,0.737747 v 24.884257 24.884257 l 17.74835,-17.728903 17.74836,-17.728903 4.76844,3.795896 c 5.41725,4.312369 13.70849,12.915006 16.37242,16.987321 l 1.79117,2.738149 -25.57577,25.589442 -25.57578,25.58944 25.56475,25.57841 25.56475,25.57841 -3.06145,3.8654 c -4.07596,5.14632 -18.40991,18.58108 -19.8247,18.58108 -0.61623,0 -8.86044,-7.73107 -18.32047,-17.18016 l -17.20007,-17.18015 v 24.38648 c 0,14.11092 -0.38216,24.62267 -0.90697,24.94702 -1.42729,0.88211 -21.37802,1.40418 -26.21003,0.68587 z"
         id="path11959" />
      <path
         style="fill:#c32126;fill-opacity:1;stroke-width:0.968464"
         d="m 79.13314,204.11448 c -4.997509,-3.95945 -15.195594,-14.6079 -16.722553,-17.46104 -0.768457,-1.43588 3.048135,-5.68341 23.232406,-25.85557 l 24.151917,-24.13743 v 23.24986 23.24987 l -12.361376,12.33394 c -6.798765,6.78367 -12.643051,12.33395 -12.987311,12.33395 -0.344251,0 -2.735137,-1.6711 -5.313083,-3.71358 z m 6.124172,-97.81585 -24.053364,-24.068822 4.810644,-5.719731 c 5.293685,-6.29406 9.540266,-10.391072 14.773537,-14.25322 l 3.43678,-2.536341 12.803371,12.829781 12.80336,12.829781 -0.26048,22.493692 -0.26049,22.49368 z"
         id="path8895" />
    </g>
  </g>
</svg>
